<svg width="24" height="25" viewBox="0 0 24 25" fill="none" xmlns="http://www.w3.org/2000/svg">
<g id="Search">
<path id="Vector" d="M19.5427 21.0751L13.2619 14.7943C12.7619 15.2071 12.1869 15.5302 11.5369 15.7635C10.8869 15.9968 10.2145 16.1135 9.51965 16.1135C7.81048 16.1135 6.36396 15.5217 5.1801 14.3382C3.99623 13.1546 3.4043 11.7085 3.4043 9.99974C3.4043 8.291 3.99608 6.84433 5.17965 5.65971C6.36321 4.47511 7.80936 3.88281 9.5181 3.88281C11.2268 3.88281 12.6735 4.47475 13.8581 5.65861C15.0427 6.84248 15.635 8.289 15.635 9.99816C15.635 10.7123 15.5151 11.3943 15.2754 12.0443C15.0356 12.6943 14.7158 13.2597 14.3158 13.7405L20.5965 20.0212L19.5427 21.0751ZM9.51965 14.6136C10.8081 14.6136 11.8995 14.1664 12.7937 13.2722C13.6879 12.378 14.135 11.2866 14.135 9.99816C14.135 8.7097 13.6879 7.61835 12.7937 6.72411C11.8995 5.82988 10.8081 5.38276 9.51965 5.38276C8.23118 5.38276 7.13983 5.82988 6.2456 6.72411C5.35138 7.61835 4.90427 8.7097 4.90427 9.99816C4.90427 11.2866 5.35138 12.378 6.2456 13.2722C7.13983 14.1664 8.23118 14.6136 9.51965 14.6136Z" fill="white"/>
</g>
</svg>
