<svg width="15" height="20" viewBox="0 0 15 20" fill="none" xmlns="http://www.w3.org/2000/svg">
<path id="Vector" d="M6.92308 16.625H8.42305V15.625H9.67308C9.88589 15.625 10.0641 15.5532 10.2077 15.4096C10.3513 15.266 10.423 15.0878 10.423 14.875V11.875C10.423 11.6622 10.3513 11.484 10.2077 11.3404C10.0641 11.1968 9.88589 11.125 9.67308 11.125H6.42305V9.62495H10.423V8.12498H8.42305V7.12498H6.92308V8.12498H5.67308C5.46026 8.12498 5.28205 8.19678 5.13845 8.34038C4.99487 8.48396 4.92308 8.66216 4.92308 8.87498V11.875C4.92308 12.0878 4.99487 12.266 5.13845 12.4096C5.28205 12.5532 5.46026 12.625 5.67308 12.625H8.92308V14.125H4.92308V15.625H6.92308V16.625ZM1.8077 19.5C1.30257 19.5 0.875 19.325 0.525 18.975C0.175 18.625 0 18.1974 0 17.6923V2.3077C0 1.80257 0.175 1.375 0.525 1.025C0.875 0.675 1.30257 0.5 1.8077 0.5H9.75L15 5.74995V17.6923C15 18.1974 14.825 18.625 14.475 18.975C14.125 19.325 13.6974 19.5 13.1922 19.5H1.8077ZM9 5.88458V1.99998H1.8077C1.73077 1.99998 1.66024 2.03203 1.59612 2.09613C1.53202 2.16024 1.49997 2.23077 1.49997 2.3077V17.6923C1.49997 17.7692 1.53202 17.8397 1.59612 17.9038C1.66024 17.9679 1.73077 18 1.8077 18H13.1922C13.2692 18 13.3397 17.9679 13.4038 17.9038C13.4679 17.8397 13.5 17.7692 13.5 17.6923V5.88458H9Z" fill="white"/>
</svg>
